HIERARCHY
ROOT hip
{
  OFFSET 0.00112043 5.09927 -9.65472
  CHANNELS 6 Xposition Yposition Zposition Zrotation Xrotation Yrotation
  JOINT abdomen
  {
    OFFSET 0 -1.186 -1.5018
    CHANNELS 3 Zrotation Xrotation Yrotation
    JOINT abdomen2
    {
      OFFSET 0 9.964 0.2134
      CHANNELS 3 Zrotation Xrotation Yrotation
      JOINT chest
      {
        OFFSET 0 13.134 -3.2573
        CHANNELS 3 Zrotation Xrotation Yrotation
        JOINT neck
        {
          OFFSET 0 20.686 -1.6905
          CHANNELS 3 Zrotation Xrotation Yrotation
          JOINT head
          {
            OFFSET 0 7.238 -0.1237
            CHANNELS 3 Zrotation Xrotation Yrotation
            End Site
            {
              OFFSET 0 0 0
            }
          }
        }
        JOINT lCollar
        {
          OFFSET 1.7069 20.075 5.0056
          CHANNELS 3 Zrotation Xrotation Yrotation
          JOINT lShldr
          {
            OFFSET 13.6458 -0.047 -4.849
            CHANNELS 3 Zrotation Xrotation Yrotation
            JOINT lForeArm
            {
              OFFSET 28.3255 -0.9759 2.2888
              CHANNELS 3 Zrotation Xrotation Yrotation
              JOINT lHand
              {
                OFFSET 22.1583 -0.53 10.8316
                CHANNELS 3 Zrotation Xrotation Yrotation
                JOINT lThumb1
                {
                  OFFSET 0.786 0.112 2.5817
                  CHANNELS 3 Zrotation Xrotation Yrotation
                  JOINT lThumb2
                  {
                    OFFSET 0.3601 -0.878 4.2331
                    CHANNELS 3 Zrotation Xrotation Yrotation
                    JOINT lThumb2_End
                    {
                      OFFSET 1.8127 -1.216 2.2227
                      CHANNELS 3 Zrotation Xrotation Yrotation
                      End Site
                      {
                        OFFSET 0.0181 -0.0122 0.0222
                      }
                    }
                  }
                }
                JOINT lCarpal1
                {
                  OFFSET 0.9571 1.114 1.7695
                  CHANNELS 3 Zrotation Xrotation Yrotation
                  JOINT lIndex1
                  {
                    OFFSET 4.1246 0.487 4.1451
                    CHANNELS 3 Zrotation Xrotation Yrotation
                    JOINT lIndex2
                    {
                      OFFSET 3.4052 -1.454 2.7682
                      CHANNELS 3 Zrotation Xrotation Yrotation
                      JOINT lIndex2_End
                      {
                        OFFSET 1.4531 -1.795 1.2713
                        CHANNELS 3 Zrotation Xrotation Yrotation
                        End Site
                        {
                          OFFSET 0.0145 -0.0179 0.0127
                        }
                      }
                    }
                  }
                  JOINT lMid1
                  {
                    OFFSET 5.6954 0.21 2.1184
                    CHANNELS 3 Zrotation Xrotation Yrotation
                    JOINT lMid2
                    {
                      OFFSET 3.9766 -1.54 2.3863
                      CHANNELS 3 Zrotation Xrotation Yrotation
                      JOINT lMid2_End
                      {
                        OFFSET 1.4042 -1.926 1.125
                        CHANNELS 3 Zrotation Xrotation Yrotation
                        End Site
                        {
                          OFFSET 0.014 -0.0193 0.0113
                        }
                      }
                    }
                  }
                }
                JOINT lCarpal2
                {
                  OFFSET 2.0956 0.66 -0.3894
                  CHANNELS 3 Zrotation Xrotation Yrotation
                  JOINT lRing1
                  {
                    OFFSET 5.0395 -0.09 2.4971
                    CHANNELS 3 Zrotation Xrotation Yrotation
                    JOINT lRing2
                    {
                      OFFSET 3.7921 -1.552 1.4806
                      CHANNELS 3 Zrotation Xrotation Yrotation
                      JOINT lRing2_End
                      {
                        OFFSET 1.4655 -1.808 0.9609
                        CHANNELS 3 Zrotation Xrotation Yrotation
                        End Site
                        {
                          OFFSET 0.0147 -0.0181 0.0096
                        }
                      }
                    }
                  }
                  JOINT lPinky1
                  {
                    OFFSET 4.9141 -1.269 0.3591
                    CHANNELS 3 Zrotation Xrotation Yrotation
                    JOINT lPinky2
                    {
                      OFFSET 3.1477 -1.685 0.8462
                      CHANNELS 3 Zrotation Xrotation Yrotation
                      JOINT lPinky2_End
                      {
                        OFFSET 0.8055 -1.585 0.7955
                        CHANNELS 3 Zrotation Xrotation Yrotation
                        End Site
                        {
                          OFFSET 0.0081 -0.0158 0.008
                        }
                      }
                    }
                  }
                }
              }
            }
          }
        }
        JOINT rCollar
        {
          OFFSET -1.7069 20.075 5.0056
          CHANNELS 3 Zrotation Xrotation Yrotation
          JOINT rShldr
          {
            OFFSET -13.6458 -0.047 -4.849
            CHANNELS 3 Zrotation Xrotation Yrotation
            JOINT rForeArm
            {
              OFFSET -28.3255 -0.9759 2.2888
              CHANNELS 3 Zrotation Xrotation Yrotation
              JOINT rHand
              {
                OFFSET -22.1583 -0.53 10.8316
                CHANNELS 3 Zrotation Xrotation Yrotation
                JOINT rThumb1
                {
                  OFFSET -0.786 0.112 2.5817
                  CHANNELS 3 Zrotation Xrotation Yrotation
                  JOINT rThumb2
                  {
                    OFFSET -0.3601 -0.878 4.2331
                    CHANNELS 3 Zrotation Xrotation Yrotation
                    JOINT rThumb2_End
                    {
                      OFFSET -1.8127 -1.216 2.2227
                      CHANNELS 3 Zrotation Xrotation Yrotation
                      End Site
                      {
                        OFFSET -0.0181 -0.0122 0.0222
                      }
                    }
                  }
                }
                JOINT rCarpal1
                {
                  OFFSET -0.9571 1.114 1.7695
                  CHANNELS 3 Zrotation Xrotation Yrotation
                  JOINT rIndex1
                  {
                    OFFSET -4.1246 0.487 4.1451
                    CHANNELS 3 Zrotation Xrotation Yrotation
                    JOINT rIndex2
                    {
                      OFFSET -3.4052 -1.454 2.7682
                      CHANNELS 3 Zrotation Xrotation Yrotation
                      JOINT rIndex2_End
                      {
                        OFFSET -1.4531 -1.795 1.2713
                        CHANNELS 3 Zrotation Xrotation Yrotation
                        End Site
                        {
                          OFFSET -0.0145 -0.018 0.0127
                        }
                      }
                    }
                  }
                  JOINT rMid1
                  {
                    OFFSET -5.6954 0.21 2.1184
                    CHANNELS 3 Zrotation Xrotation Yrotation
                    JOINT rMid2
                    {
                      OFFSET -3.9766 -1.54 2.3863
                      CHANNELS 3 Zrotation Xrotation Yrotation
                      JOINT rMid2_End
                      {
                        OFFSET -1.4042 -1.926 1.125
                        CHANNELS 3 Zrotation Xrotation Yrotation
                        End Site
                        {
                          OFFSET -0.014 -0.0193 0.0113
                        }
                      }
                    }
                  }
                }
                JOINT rCarpal2
                {
                  OFFSET -2.0956 0.66 -0.3894
                  CHANNELS 3 Zrotation Xrotation Yrotation
                  JOINT rRing1
                  {
                    OFFSET -5.0395 -0.09 2.4971
                    CHANNELS 3 Zrotation Xrotation Yrotation
                    JOINT rRing2
                    {
                      OFFSET -3.7921 -1.552 1.4806
                      CHANNELS 3 Zrotation Xrotation Yrotation
                      JOINT rRing2_End
                      {
                        OFFSET -1.4655 -1.808 0.9609
                        CHANNELS 3 Zrotation Xrotation Yrotation
                        End Site
                        {
                          OFFSET -0.0147 -0.0181 0.0096
                        }
                      }
                    }
                  }
                  JOINT rPinky1
                  {
                    OFFSET -4.9141 -1.269 0.3592
                    CHANNELS 3 Zrotation Xrotation Yrotation
                    JOINT rPinky2
                    {
                      OFFSET -3.1477 -1.685 0.8462
                      CHANNELS 3 Zrotation Xrotation Yrotation
                      JOINT rPinky2_End
                      {
                        OFFSET -0.8055 -1.585 0.7955
                        CHANNELS 3 Zrotation Xrotation Yrotation
                        End Site
                        {
                          OFFSET -0.0081 -0.0158 0.008
                        }
                      }
                    }
                  }
                }
              }
            }
          }
        }
      }
    }
  }
  JOINT lThigh
  {
    OFFSET 8.367 -8.2066 0.5982
    CHANNELS 3 Zrotation Xrotation Yrotation
    JOINT lShin
    {
      OFFSET 2.1923 -43.463 -0.4932
      CHANNELS 3 Zrotation Xrotation Yrotation
      JOINT lFoot
      {
        OFFSET 0.7333 -45.8593 -2.6451
        CHANNELS 3 Zrotation Xrotation Yrotation
        End Site
        {
          OFFSET 2.6618 -4.2699 12.3931
        }
      }
    }
  }
  JOINT rThigh
  {
    OFFSET -8.367 -8.2066 0.5982
    CHANNELS 3 Zrotation Xrotation Yrotation
    JOINT rShin
    {
      OFFSET -2.1923 -43.463 -0.4931
      CHANNELS 3 Zrotation Xrotation Yrotation
      JOINT rFoot
      {
        OFFSET -0.7333 -45.8593 -2.6451
        CHANNELS 3 Zrotation Xrotation Yrotation
        End Site
        {
          OFFSET -2.6618 -4.2699 12.3931
        }
      }
    }
  }
}
MOTION
Frames:	4
Frame Time:	0.0333333
42.3102 35.555 -8.87276 -0.00385285 -56.9961 179.995 -0.199384 7.55207 -0.1263 -0.386918 15.1045 -0.228843 -0.386918 15.1045 -0.228842 -3.72953 -13.6337 -2.06981 -9.43132 -9.50024 -4.1882 0.346692 -9.30538 -35.0874 2.47362 -4.68726 -35.484 5.33116 -11.9904 12.0458 55.991 -26.6566 10.2215 1.59028e-015 3.18055e-015 -0 -1.59028e-015 2.38542e-015 -3.18055e-015 -1.59028e-015 1.59028e-015 3.18055e-015 4.77083e-015 0 -0 8.82781e-032 1.59028e-015 -3.18055e-015 -1.59028e-015 2.38542e-015 -0 -1.59028e-015 7.95139e-016 3.18055e-015 8.82781e-032 1.59028e-015 -3.18055e-015 -1.59028e-015 2.38542e-015 -0 -1.59028e-015 7.95139e-016 3.18055e-015 4.77083e-015 0 -0 8.82781e-032 1.59028e-015 -3.18055e-015 -1.59028e-015 2.38542e-015 -0 -1.59028e-015 7.95139e-016 3.18055e-015 8.82781e-032 1.59028e-015 -3.18055e-015 -1.59028e-015 2.38542e-015 -0 -1.59028e-015 7.95139e-016 3.18055e-015 1.03359 -8.01583 29.8917 -2.18656 -4.09758 47.9745 -10.3534 -12.7869 -6.82332 -57.084 -16.8968 -13.907 3.50499e-007 -1.14925e-006 1.17099e-007 -4.05255e-007 1.45763e-006 1.25605e-005 1.90382e-007 -1.27072e-006 -3.29644e-006 -1.59028e-015 -7.95139e-016 3.18055e-015 3.50499e-007 -1.14925e-006 1.17099e-007 -4.05255e-007 1.45763e-006 1.25605e-005 1.90382e-007 -1.27072e-006 -3.29644e-006 3.50499e-007 -1.14925e-006 1.17099e-007 -4.05255e-007 1.45763e-006 1.25605e-005 1.90382e-007 -1.27072e-006 -3.29644e-006 -1.59028e-015 -7.95139e-016 3.18055e-015 3.50499e-007 -1.14925e-006 1.17099e-007 -4.05255e-007 1.45763e-006 1.25605e-005 1.90382e-007 -1.27072e-006 -3.29644e-006 3.50499e-007 -1.14925e-006 1.17099e-007 -4.05255e-007 1.45763e-006 1.25605e-005 1.90382e-007 -1.27072e-006 -3.29644e-006 63.4531 -56.2812 70.3997 92.774 63.014 -90.3375 27.8691 54.867 -12.8207 -63.4592 -56.2768 -70.4056 -92.7747 63.0141 90.333 -27.8726 54.8668 12.8189 
42.3102 35.555 -8.95888 -0.00385285 -56.9961 179.995 -0.199639 7.61232 -0.126006 -0.387418 15.225 -0.228036 -0.387418 15.225 -0.228036 -3.76637 -13.9409 -2.09744 -9.51704 -9.75371 -4.24356 0.357463 -9.42741 -34.8041 2.46927 -4.67797 -35.7624 5.45296 -12.0191 11.97 55.991 -26.6566 10.2215 1.59028e-015 -2.38542e-015 6.36111e-015 1.59028e-015 -1.59028e-015 6.36111e-015 3.97252e-031 -2.38542e-015 9.54166e-015 0 7.95139e-016 -0 -6.36111e-015 -1.59028e-015 9.54166e-015 1.59028e-015 -2.38542e-015 9.54166e-015 1.59028e-015 -2.38542e-015 1.90833e-014 -6.36111e-015 -1.59028e-015 9.54166e-015 1.59028e-015 -2.38542e-015 9.54166e-015 1.59028e-015 -2.38542e-015 1.90833e-014 0 7.95139e-016 -0 -6.36111e-015 -1.59028e-015 9.54166e-015 1.59028e-015 -2.38542e-015 9.54166e-015 1.59028e-015 -2.38542e-015 1.90833e-014 -6.36111e-015 -1.59028e-015 9.54166e-015 1.59028e-015 -2.38542e-015 9.54166e-015 1.59028e-015 -2.38542e-015 1.90833e-014 1.02399 -8.16116 29.6491 -2.194 -4.10855 48.1882 -10.3534 -12.7869 -6.82333 -57.2189 -16.8856 -14.008 -3.99093e-007 -7.50036e-007 6.95693e-008 -1.59028e-015 0 3.18055e-015 -1.59028e-015 -1.59028e-015 -6.36111e-015 1.59028e-015 1.59028e-015 3.18055e-015 -3.99093e-007 -7.50036e-007 6.95693e-008 -1.32417e-031 -2.38542e-015 -3.18055e-015 -1.59028e-015 -7.95139e-016 -6.36111e-015 -3.99093e-007 -7.50036e-007 6.95693e-008 -1.32417e-031 -2.38542e-015 -3.18055e-015 -1.59028e-015 -7.95139e-016 -6.36111e-015 1.59028e-015 1.59028e-015 3.18055e-015 -3.99093e-007 -7.50036e-007 6.95693e-008 -1.32417e-031 -2.38542e-015 -3.18055e-015 -1.59028e-015 -7.95139e-016 -6.36111e-015 -3.99093e-007 -7.50036e-007 6.95693e-008 -1.32417e-031 -2.38542e-015 -3.18055e-015 -1.59028e-015 -7.95139e-016 -6.36111e-015 63.4531 -56.2812 70.3997 92.774 63.014 -90.3374 27.8691 54.867 -12.8207 -63.4592 -56.2768 -70.4056 -92.7748 63.014 90.3331 -27.8726 54.8668 12.8189 
42.3102 35.555 -9.045 -0.00385285 -56.9961 179.995 -0.199898 7.67255 -0.125701 -0.387927 15.3455 -0.227205 -0.387927 15.3455 -0.227205 -3.8033 -14.2491 -2.1253 -9.60307 -10.0071 -4.29935 0.368845 -9.54936 -34.5207 2.46508 -4.66857 -36.0408 5.57473 -12.048 11.8943 55.991 -26.6566 10.2215 4.77083e-015 3.18055e-015 -9.54166e-015 1.59028e-015 -1.59028e-015 3.18055e-015 1.59028e-015 -1.59028e-015 6.36111e-015 3.18055e-015 2.38542e-015 -9.54166e-015 -3.18055e-015 0 1.59028e-014 4.77083e-015 1.59028e-015 -3.18055e-015 4.77083e-015 -1.59028e-015 3.18055e-015 -3.18055e-015 0 1.59028e-014 4.77083e-015 1.59028e-015 -3.18055e-015 4.77083e-015 -1.59028e-015 3.18055e-015 3.18055e-015 2.38542e-015 -9.54166e-015 -3.18055e-015 0 1.59028e-014 4.77083e-015 1.59028e-015 -3.18055e-015 4.77083e-015 -1.59028e-015 3.18055e-015 -3.18055e-015 0 1.59028e-014 4.77083e-015 1.59028e-015 -3.18055e-015 4.77083e-015 -1.59028e-015 3.18055e-015 1.01376 -8.3064 29.4064 -2.2014 -4.11952 48.4018 -10.3534 -12.7869 -6.8233 -57.3537 -16.8743 -14.1088 0 2.22639e-014 -0 -5.47324e-030 2.46493e-014 1.27222e-014 3.18055e-015 2.3059e-014 -0 -1.59028e-015 0 -3.18055e-015 -3.18055e-015 2.38542e-014 1.27222e-014 1.59028e-015 2.22639e-014 -0 1.59028e-015 2.54444e-014 6.36111e-015 -3.18055e-015 2.38542e-014 1.27222e-014 1.59028e-015 2.22639e-014 -0 1.59028e-015 2.54444e-014 6.36111e-015 -1.59028e-015 0 -3.18055e-015 -3.18055e-015 2.38542e-014 1.27222e-014 1.59028e-015 2.22639e-014 -0 1.59028e-015 2.54444e-014 6.36111e-015 -3.18055e-015 2.38542e-014 1.27222e-014 1.59028e-015 2.22639e-014 -0 1.59028e-015 2.54444e-014 6.36111e-015 63.4531 -56.2812 70.3997 92.774 63.014 -90.3374 27.8691 54.867 -12.8207 -63.4592 -56.2768 -70.4056 -92.7748 63.014 90.3331 -27.8726 54.8668 12.8189 
42.3102 35.555 -9.13112 -0.00385285 -56.9961 179.995 -0.20016 7.73278 -0.125382 -0.388447 15.4659 -0.226346 -0.388447 15.4659 -0.226346 -3.84055 -14.5562 -2.15342 -9.68941 -10.2604 -4.35556 0.380834 -9.67125 -34.2372 2.461 -4.65905 -36.3191 5.69647 -12.0771 11.8187 55.991 -26.6566 10.2215 -4.77083e-015 4.77083e-015 6.36111e-015 -4.77083e-015 3.18055e-015 -0 -3.18055e-015 3.97569e-015 9.54166e-015 -1.59028e-015 7.95139e-016 -3.18055e-015 -6.36111e-015 2.38542e-015 9.54166e-015 -3.18055e-015 4.77083e-015 3.18055e-015 -3.18055e-015 3.97569e-015 6.36111e-015 -6.36111e-015 2.38542e-015 9.54166e-015 -3.18055e-015 4.77083e-015 3.18055e-015 -3.18055e-015 3.97569e-015 6.36111e-015 -1.59028e-015 7.95139e-016 -3.18055e-015 -6.36111e-015 2.38542e-015 9.54166e-015 -3.18055e-015 4.77083e-015 3.18055e-015 -3.18055e-015 3.97569e-015 6.36111e-015 -6.36111e-015 2.38542e-015 9.54166e-015 -3.18055e-015 4.77083e-015 3.18055e-015 -3.18055e-015 3.97569e-015 6.36111e-015 1.0029 -8.45159 29.1636 -2.20877 -4.13053 48.6155 -10.3534 -12.7869 -6.82332 -57.4886 -16.8626 -14.2097 -1.49815e-007 3.61713e-007 -3.25696e-006 -7.62974e-007 2.62199e-007 -2.87729e-006 6.00537e-007 -3.68382e-008 -3.20838e-006 1.59028e-015 -7.95139e-016 -6.36111e-015 -1.49815e-007 3.61713e-007 -3.25696e-006 -7.62974e-007 2.62199e-007 -2.87729e-006 6.00537e-007 -3.68382e-008 -3.20838e-006 -1.49815e-007 3.61713e-007 -3.25696e-006 -7.62974e-007 2.62199e-007 -2.87729e-006 6.00537e-007 -3.68382e-008 -3.20838e-006 1.59028e-015 -7.95139e-016 -6.36111e-015 -1.49815e-007 3.61713e-007 -3.25696e-006 -7.62974e-007 2.62199e-007 -2.87729e-006 6.00537e-007 -3.68382e-008 -3.20838e-006 -1.49815e-007 3.61713e-007 -3.25696e-006 -7.62974e-007 2.62199e-007 -2.87729e-006 6.00537e-007 -3.68382e-008 -3.20838e-006 63.4531 -56.2812 70.3997 92.774 63.014 -90.3374 27.8691 54.867 -12.8207 -63.4591 -56.2768 -70.4056 -92.7748 63.0141 90.333 -27.8726 54.8668 12.8189 
